name D:\school\WTK\thesis\model\3dpredictsim\Results\MidTarsalJoint\Fal_s1_bCst_PF_Natali2010_ls150_MT_k500_d050_MTP_T5_ig24.mot
datacolumns 128
datarows 4
range 1.67420036 1.70768437
endheader
time	pelvis_tilt	pelvis_list	pelvis_rotation	pelvis_tx	pelvis_ty	pelvis_tz	hip_flexion_l	hip_adduction_l	hip_rotation_l	hip_flexion_r	hip_adduction_r	hip_rotation_r	knee_angle_l	knee_angle_r	ankle_angle_l	ankle_angle_r	subtalar_angle_l	subtalar_angle_r	mtj_angle_l	mtj_angle_r	mtp_angle_l	mtp_angle_r	lumbar_extension	lumbar_bending	lumbar_rotation	arm_flex_l	arm_add_l	arm_rot_l	arm_flex_r	arm_add_r	arm_rot_r	elbow_flex_l	elbow_flex_r	pro_sup_l	pro_sup_r	glut_med1_l/activation	glut_med2_l/activation	glut_med3_l/activation	glut_min1_l/activation	glut_min2_l/activation	glut_min3_l/activation	semimem_l/activation	semiten_l/activation	bifemlh_l/activation	bifemsh_l/activation	sar_l/activation	add_long_l/activation	add_brev_l/activation	add_mag1_l/activation	add_mag2_l/activation	add_mag3_l/activation	tfl_l/activation	pect_l/activation	grac_l/activation	glut_max1_l/activation	glut_max2_l/activation	glut_max3_l/activation	iliacus_l/activation	psoas_l/activation	quad_fem_l/activation	gem_l/activation	peri_l/activation	rect_fem_l/activation	vas_med_l/activation	vas_int_l/activation	vas_lat_l/activation	med_gas_l/activation	lat_gas_l/activation	soleus_l/activation	tib_post_l/activation	flex_dig_l/activation	flex_hal_l/activation	tib_ant_l/activation	per_brev_l/activation	per_long_l/activation	per_tert_l/activation	ext_dig_l/activation	ext_hal_l/activation	ercspn_l/activation	intobl_l/activation	extobl_l/activation	glut_med1_r/activation	glut_med2_r/activation	glut_med3_r/activation	glut_min1_r/activation	glut_min2_r/activation	glut_min3_r/activation	semimem_r/activation	semiten_r/activation	bifemlh_r/activation	bifemsh_r/activation	sar_r/activation	add_long_r/activation	add_brev_r/activation	add_mag1_r/activation	add_mag2_r/activation	add_mag3_r/activation	tfl_r/activation	pect_r/activation	grac_r/activation	glut_max1_r/activation	glut_max2_r/activation	glut_max3_r/activation	iliacus_r/activation	psoas_r/activation	quad_fem_r/activation	gem_r/activation	peri_r/activation	rect_fem_r/activation	vas_med_r/activation	vas_int_r/activation	vas_lat_r/activation	med_gas_r/activation	lat_gas_r/activation	soleus_r/activation	tib_post_r/activation	flex_dig_r/activation	flex_hal_r/activation	tib_ant_r/activation	per_brev_r/activation	per_long_r/activation	per_tert_r/activation	ext_dig_r/activation	ext_hal_r/activation	ercspn_r/activation	intobl_r/activation	extobl_r/activation	
          1.67420036	         -2.92864190	          2.02553855	         -4.69459710	          2.09275045	          0.92048572	          0.00175543	         29.81628810	          3.15939942	         -2.31357584	        -17.18449880	         -0.76574604	          6.65414410	        -12.23797567	         -5.22855003	          6.06352000	         -0.75234467	         -3.97111573	          7.23398402	         -0.12129373	          3.55369910	          0.58359314	         14.61659538	         -2.21783860	         -0.13945305	          1.92215899	         -4.23011461	        -13.45728146	          6.10275367	          5.06202988	        -13.44988016	         15.49724649	         17.62530493	         32.52363785	         86.51662706	         86.51662706	          0.07033148	          0.05000169	          0.05930042	          0.05000083	          0.05000099	          0.05000438	          0.11843804	          0.07031897	          0.23598283	          0.05002432	          0.05000149	          0.13161464	          0.17049155	          0.15111542	          0.13994614	          0.10788709	          0.05454133	          0.05002125	          0.10055621	          0.05930158	          0.08057437	          0.09919620	          0.05000017	          0.05000030	          0.16997187	          0.05000057	          0.05000201	          0.05000014	          0.05000101	          0.05000121	          0.05000067	          0.05000006	          0.05000016	          0.05000003	          0.05930102	          0.05000357	          0.05326921	          0.43139790	          0.25360360	          0.19685562	          0.08572133	          0.41086665	          0.14350985	          0.07033249	          0.13304005	          0.12337734	          0.30869682	          0.11734083	          0.08793644	          0.34912118	          0.23148133	          0.12903131	          0.05000129	          0.05000039	          0.05000032	          0.07206672	          0.12536967	          0.05000014	          0.05000015	          0.05000026	          0.05000074	          0.05000063	          0.36476387	          0.05000067	          0.05000077	          0.05007153	          0.05000898	          0.05000153	          0.45760835	          0.66968088	          0.05000075	          0.05004001	          0.06645440	          0.27475022	          0.05000078	          0.05000081	          0.05000080	          0.34773081	          0.47203896	          0.33519596	          0.29187361	          0.29734424	          0.36545457	          0.05000010	          0.05000586	          0.11302318	          0.05000045	          0.05000013	          0.05000047	          0.05000001	          0.05000003	          0.05000003	
          1.68536169	         -2.93017638	          2.11536889	         -5.00757857	          2.10911976	          0.91941350	          0.00156639	         29.27479786	          3.50236138	         -2.12330275	        -17.18333327	         -1.06138490	          6.46053873	        -11.79864944	         -6.90511574	          5.71022955	         -1.21043421	         -4.36517318	          8.18006857	         -0.10334421	          3.16977284	          0.58714386	         15.89579549	         -2.05076997	         -0.33189871	          1.99474254	         -5.02044540	        -13.45580617	          5.83102977	          4.88476721	        -13.45430242	         15.88529221	         17.15123369	         33.67061484	         86.51662706	         86.51662706	          0.05930051	          0.05930070	          0.05000031	          0.05930113	          0.05930108	          0.05001201	          0.11390845	          0.05928996	          0.22455611	          0.05000028	          0.05000060	          0.13916114	          0.30989748	          0.13798906	          0.14528127	          0.10861178	          0.05000022	          0.08339539	          0.08478585	          0.05000091	          0.11845955	          0.15399836	          0.05019525	          0.05000042	          0.15703315	          0.25980720	          0.13153203	          0.05334455	          0.13785923	          0.13469756	          0.12202263	          0.05003535	          0.05000462	          0.05318956	          0.05000004	          0.05000087	          0.05000034	          0.55009477	          0.26123976	          0.16597988	          0.25048570	          0.47224630	          0.21954777	          0.05930117	          0.11217333	          0.10402617	          0.26354993	          0.09893648	          0.07414404	          0.29436339	          0.19517464	          0.10879340	          0.05000128	          0.05000038	          0.05000026	          0.06076344	          0.10570642	          0.08904648	          0.05000207	          0.05000138	          0.05000259	          0.05000092	          0.30755270	          0.08199780	          0.05000394	          0.05000623	          0.05000347	          0.05000240	          0.41532923	          0.64485865	          0.05000111	          0.05000109	          0.05603143	          0.23165724	          0.05000220	          0.05000220	          0.05000192	          0.29319085	          0.40185987	          0.32338774	          0.28852371	          0.29054600	          0.37884615	          0.05000007	          0.05526956	          0.11223636	          0.05000039	          0.05000010	          0.05000038	          0.05000005	          0.05000010	          0.05000013	
          1.69652303	         -2.92719601	          2.20278911	         -5.29571512	          2.12585369	          0.91840388	          0.00136909	         28.64245375	          3.82657146	         -1.88616334	        -17.08797249	         -1.35481730	          6.26626842	        -11.96911388	         -8.75384194	          5.07056231	         -1.79281858	         -4.73747504	          9.12181748	         -0.08321711	          2.68435366	          0.59855041	         17.24969397	         -1.85659358	         -0.53141256	          2.05996958	         -5.85929333	        -13.45528451	          5.58947456	          4.62274390	        -13.46078468	         16.20575497	         16.75046538	         34.79915614	         86.51662706	         86.51662706	          0.05000002	          0.05000007	          0.10191553	          0.05000007	          0.05000008	          0.05000013	          0.09604252	          0.05000043	          0.18933556	          0.05000034	          0.05001479	          0.11733471	          0.26129240	          0.31101334	          0.21240186	          0.12545193	          0.05000077	          0.07032294	          0.13072663	          0.06705915	          0.10935708	          0.12984481	          0.05000014	          0.05930239	          0.40887144	          0.21905766	          0.11090188	          0.05930416	          0.14069849	          0.14481115	          0.12128394	          0.05000027	          0.05930263	          0.05000004	          0.06559436	          0.05000691	          0.05930218	          0.46381498	          0.29103976	          0.20414682	          0.21119833	          0.43039976	          0.18511277	          0.05000006	          0.09457946	          0.08771014	          0.22221340	          0.08341877	          0.06251494	          0.24819405	          0.16456246	          0.09172971	          0.05000440	          0.05000091	          0.05000105	          0.05123307	          0.08912713	          0.17111317	          0.05130468	          0.05956645	          0.05929012	          0.05930233	          0.25931465	          0.08386513	          0.05002087	          0.05000478	          0.05000338	          0.05000522	          0.35018684	          0.60047288	          0.05000207	          0.05930099	          0.05930106	          0.19532451	          0.14388588	          0.13554070	          0.14009399	          0.24720519	          0.33883002	          0.28184376	          0.25629510	          0.24497631	          0.31943200	          0.05000007	          0.05000013	          0.12383086	          0.05000018	          0.05000006	          0.05000028	          0.05460772	          0.05975517	          0.05728664	
          1.70768437	         -2.92062282	          2.29392463	         -5.55511134	          2.14286308	          0.91747384	          0.00118560	         27.89858921	          4.07416381	         -1.62710832	        -16.91722080	         -1.64884303	          6.06426030	        -12.46754852	        -10.71769243	          4.55191990	         -2.52566713	         -5.12623065	         10.02842560	         -0.18449931	          2.09268176	          0.53620310	         18.62407949	         -1.64346967	         -0.74324506	          2.11409488	         -6.72393855	        -13.46110735	          5.39913833	          4.28922483	        -13.46408733	         16.46133788	         16.40407316	         35.90302231	         86.51662706	         86.51662706	          0.23237731	          0.22598673	          0.27245852	          0.34207205	          0.21502882	          0.18917543	          0.09163979	          0.05000214	          0.15964405	          0.07541386	          0.05000333	          0.09893136	          0.22030997	          0.26223243	          0.17908779	          0.11643183	          0.05000072	          0.05930106	          0.11022347	          0.11877976	          0.12808522	          0.10947942	          0.05930006	          0.05000154	          0.34474188	          0.18469962	          0.20951010	          0.05000261	          0.11863068	          0.12209829	          0.10226119	          0.05000105	          0.05000173	          0.05077605	          0.05530626	          0.05000056	          0.05000134	          0.54843944	          0.32942266	          0.17212827	          0.31792781	          0.50905182	          0.15608024	          0.06152357	          0.11713458	          0.07395321	          0.32001387	          0.07033495	          0.05270981	          0.30626080	          0.13875171	          0.07734238	          0.05000183	          0.05000030	          0.05000025	          0.05000023	          0.07514839	          0.14427504	          0.05134853	          0.05022410	          0.05000254	          0.05000186	          0.24952734	          0.07072219	          0.05000138	          0.05000370	          0.05000219	          0.05000149	          0.29526178	          0.56632028	          0.05000035	          0.05000118	          0.05000039	          0.16468886	          0.12131881	          0.11428248	          0.11812150	          0.20843218	          0.28568608	          0.23763784	          0.21609652	          0.20655317	          0.26933084	          0.05000003	          0.09048401	          0.14789419	          0.05000018	          0.05000004	          0.05000019	          0.05000081	          0.05038285	          0.05000006	
